<svg width="880" height="1024" viewBox="0 0 880 1024" fill="none" xmlns="http://www.w3.org/2000/svg">
<path d="M331.046 114.075C415.133 91.5038 504.23 96.0603 585.563 127.088C666.894 158.117 736.296 214.029 783.821 286.81C831.344 359.589 854.554 445.506 850.125 532.25C845.696 618.994 813.85 702.119 759.158 769.707L731.992 747.835C782.054 685.968 811.203 609.88 815.258 530.478C819.312 451.077 798.066 372.43 754.563 305.811C711.062 239.192 647.533 188.016 573.085 159.615C498.638 131.214 417.09 127.046 340.122 147.707C263.155 168.367 194.717 212.795 144.615 274.629C94.5134 336.463 65.3154 412.53 61.2093 491.93C57.1035 571.326 78.299 649.984 121.756 716.632C165.214 783.28 228.707 834.504 303.136 862.954L290.645 895.467C209.331 864.386 139.97 808.432 92.4926 735.621C45.016 662.81 21.8566 576.878 26.3418 490.138C30.8272 403.395 62.7279 320.296 117.463 252.744C172.198 185.19 246.96 136.647 331.046 114.075Z" fill="black"/>
<path d="M714.218 817.822C672.446 855.422 623.398 884.099 570.101 902.088L558.931 869.16C607.726 852.691 652.624 826.435 690.866 792.011L698.966 784.741L714.218 817.822Z" fill="black"/>
<path d="M117.902 831.977L52.2514 989.185H228.816L279.51 853.968L312.086 866.197L252.925 1024H0L85.7962 818.56L92.8189 802.059L117.902 831.977Z" fill="black"/>
<path d="M555.408 264.211L555.435 264.282L555.464 264.358L876.307 1022.56H620.507L566.75 892.843L599.014 879.544L643.85 987.736H823.68L523.366 278.043L440.789 87.6926L358.218 278.043L358.189 278.12L148.24 755.771L116.269 741.792L326.211 264.134L440.789 0L555.408 264.211Z" fill="black"/>
</svg>
